<svg width="185" height="58" viewBox="0 0 185 58" fill="none" xmlns="http://www.w3.org/2000/svg">
    <path d="M19.2052 0.37434C17.5539 0.764084 16.3744 1.39998 15.1744 2.52819C13.8719 3.75896 13.0924 5.16408 12.7334 6.90767C12.5077 8.04613 12.5795 9.83075 12.8975 10.8461C13.8206 13.7487 16.0052 15.8513 18.8975 16.6C19.9847 16.8769 21.9232 16.8564 23.0001 16.559C26.3848 15.5949 28.7027 12.8974 29.1335 9.43075C29.4925 6.46665 28.0874 3.38972 25.5848 1.68716C24.9284 1.23588 23.7489 0.682032 23.0001 0.476904C22.1488 0.251263 19.995 0.189724 19.2052 0.37434Z" fill="#1560BD"/>
    <path d="M76.2418 7.67689C74.3956 8.0051 73.493 8.76407 73.1443 10.2718C72.7648 11.8512 72.7751 25.2769 73.1545 26.723C73.5238 28.1282 74.2212 28.7743 75.8212 29.2051C76.6418 29.4307 79.1649 29.523 80.2828 29.3692C82.1803 29.1128 83.0828 28.6102 83.6675 27.4718L84.0162 26.7846L84.088 24.5589C84.1905 21.5948 84.1803 15.1743 84.0777 12.4359C84.0264 10.7948 83.9546 10.1077 83.8316 9.75894C83.4316 8.65125 82.3957 7.95381 80.7546 7.66663C79.6264 7.47176 77.3392 7.48202 76.2418 7.67689ZM80.4572 9.47176C81.0931 9.59484 81.6162 9.92304 81.811 10.3333C81.9239 10.5589 81.9854 11.2666 82.0367 12.8461C82.1392 15.8307 82.1392 22.7846 82.0367 24.7641C81.9341 26.6615 81.8418 26.9077 81.052 27.3077C80.5597 27.5538 80.4674 27.5641 78.5392 27.5641C76.611 27.5641 76.5187 27.5538 76.0366 27.3077C75.1751 26.8769 75.134 26.7641 75.0417 24.723C74.9392 22.3538 74.9392 13.6666 75.0417 11.882C75.1443 10.2512 75.2264 10.0769 76.0059 9.68715C76.7546 9.30766 79.0007 9.19484 80.4572 9.47176Z" fill="black"/>
    <path d="M89.6267 7.67689C88.1292 7.98458 87.1651 8.69227 86.7959 9.74868C86.5702 10.3846 86.4061 12.9692 86.4882 14.4871C86.6831 18.0974 87.3497 18.7333 91.719 19.5128C93.76 19.8718 94.2318 20.0359 94.5908 20.4461C95.0729 21.0205 95.1857 21.7179 95.196 23.9743C95.2062 26.2512 95.1344 26.6205 94.6318 27.041C94.1293 27.4718 93.4216 27.6154 91.9241 27.6154C89.8728 27.6154 89.0728 27.3179 88.7344 26.4153C88.5703 26.0051 88.5497 25.5948 88.5395 23.6974V21.4615H87.5549H86.56L86.4882 22.8256C86.3959 24.5487 86.5497 26.4461 86.8369 27.2051C87.401 28.6923 88.7344 29.3282 91.4626 29.4307C93.8626 29.5128 95.6062 29.082 96.3447 28.2C97.0934 27.3077 97.3088 26.3128 97.3088 23.5948C97.3088 20.1897 96.919 19.123 95.3703 18.3436C94.7242 18.0051 94.0062 17.841 91.9241 17.5128C89.9651 17.1948 89.5241 17.0615 89.1549 16.6205C88.7138 16.0974 88.642 15.6461 88.642 13.0512C88.642 10.2718 88.6831 10.1282 89.5241 9.6974C90.4574 9.21535 93.2882 9.20509 94.16 9.68714C94.8883 10.0871 95.0216 10.4051 95.1036 11.8718C95.1447 12.5795 95.1447 13.6359 95.1036 14.2307L95.0318 15.3179L96.0472 15.2871L97.0524 15.2564L97.0831 13.1538C97.1242 10.3948 96.9806 9.64612 96.2216 8.75381C95.9139 8.38458 95.1447 7.96407 94.3857 7.74868C93.6062 7.52304 90.5908 7.48201 89.6267 7.67689Z" fill="black"/>
    <path d="M119.104 7.64613C118.119 7.97433 117.678 8.36408 117.237 9.30767C116.97 9.88203 116.95 10.0051 116.96 11.2051C116.97 13.041 117.36 14.7846 118.263 16.9897L118.519 17.6051L117.965 18.3231C116.796 19.8615 116.652 20.4872 116.642 24.1282C116.642 26.7128 116.652 26.8769 116.868 27.4102C117.493 28.9487 118.745 29.5538 121.032 29.4307C122.642 29.3487 123.401 28.9795 124.006 28.0051C124.17 27.7384 124.324 27.5128 124.334 27.5128C124.345 27.5128 124.663 27.9025 125.042 28.3846L125.74 29.2666L126.324 28.7333C126.642 28.4359 126.96 28.1384 127.042 28.0666C127.165 27.9538 127.104 27.8307 126.683 27.2872C126.396 26.9282 125.883 26.241 125.534 25.7487L124.899 24.8666V23.441C124.899 22.0461 124.755 19.5231 124.632 18.7641L124.57 18.3846H123.699H122.837L122.899 18.9179C122.991 19.7077 123.145 21.9128 123.104 21.9538C123.052 22.0051 122.16 20.4872 121.493 19.2256L120.878 18.0666L121.35 17.482C123.288 15.1231 124.037 13.2154 123.955 10.8974C123.893 9.13331 123.463 8.33331 122.283 7.81023C121.647 7.52305 119.77 7.43075 119.104 7.64613ZM121.411 9.33844C121.945 9.59485 122.129 10.0564 122.129 11.1025C122.129 11.5846 122.058 12.2718 121.975 12.641C121.77 13.5025 121.134 14.7846 120.529 15.5538L120.047 16.1692L119.76 15.4307C119.032 13.5128 118.683 11.3795 118.94 10.3128C119.063 9.81023 119.411 9.35895 119.77 9.22562C120.119 9.10254 121.063 9.16408 121.411 9.33844ZM120.416 21.4615C120.755 22.0564 121.422 23.1538 121.904 23.9025L122.775 25.2769L122.714 25.8307C122.632 26.5897 122.365 27.1128 121.924 27.3384C121.637 27.482 121.37 27.5128 120.622 27.4923C119.606 27.4615 119.35 27.3487 118.909 26.7538C118.642 26.4051 118.55 24.8769 118.663 22.7948C118.734 21.3795 118.868 20.8051 119.278 20.1487L119.493 19.8L119.647 20.0872C119.729 20.2513 120.078 20.8666 120.416 21.4615Z" fill="black"/>
    <path d="M149.924 7.62565C148.253 7.89232 147.186 8.63078 146.745 9.82052C146.55 10.3539 146.509 10.7744 146.417 12.9487C146.294 15.9539 146.376 25.318 146.54 26.2821C146.93 28.5692 148.468 29.4615 152.027 29.4615C154.899 29.4615 156.468 28.8564 157.176 27.4718C157.586 26.6615 157.637 25.5026 157.596 17.6257C157.545 9.3077 157.596 9.73847 156.591 8.7436C155.965 8.11796 155.268 7.81026 154.027 7.61539C153.227 7.49232 150.714 7.50257 149.924 7.62565ZM153.965 9.4718C154.242 9.52309 154.622 9.65642 154.807 9.76924C155.442 10.1692 155.442 10.1898 155.565 15.3385C155.699 20.5795 155.576 25.9128 155.319 26.518C154.971 27.3487 154.181 27.6154 152.027 27.6154C149.955 27.6154 149.094 27.359 148.755 26.6513C148.437 25.9744 148.273 17.4308 148.488 12.8462C148.612 10.2615 148.673 10.0564 149.442 9.67693C150.181 9.3077 152.591 9.20514 153.965 9.4718Z" fill="black"/>
    <path d="M62.5391 18.4872V29.2564H66.9494H71.3597V28.282V27.3077H68.0263H64.6929V17.5128V7.71795H63.616H62.5391V18.4872Z" fill="black"/>
    <path d="M98.4575 8.66154L98.4883 9.61538L100.57 9.64615L102.642 9.66666V19.4615V29.2564H103.668H104.693V19.4615V9.66666H106.745H108.796V8.6923V7.71795H103.617H98.4268L98.4575 8.66154Z" fill="black"/>
    <path d="M135.976 18.4872V29.2564H137.001H138.027V24.3333V19.4103H141.155H144.283V18.4359V17.4615L141.186 17.441L138.078 17.4103L138.047 13.5333L138.027 9.66666H141.36H144.694V8.6923V7.71795H140.335H135.976V18.4872Z" fill="black"/>
    <path d="M160.129 9.62565C160.088 10.6821 160.078 14.8667 160.099 18.9385C160.15 26.0974 160.16 26.3539 160.376 27C160.909 28.6718 162.201 29.3282 165.206 29.4308C167.883 29.5231 169.483 29.1128 170.386 28.0974C171.186 27.2154 171.186 27.2154 171.247 21.5641C171.278 18.8257 171.299 14.5898 171.278 12.1487L171.247 7.71796H170.181H169.124L169.176 13.5333C169.206 16.7436 169.196 20.9692 169.155 22.9282L169.083 26.5077L168.776 26.8462C168.253 27.4513 167.76 27.5641 165.719 27.5641C163.647 27.5641 163.073 27.4308 162.56 26.8462C162.263 26.518 162.253 26.4462 162.181 25.1846C162.129 24.4667 162.129 20.241 162.16 15.7898L162.232 7.71796H161.217H160.201L160.129 9.62565Z" fill="black"/>
    <path d="M173.822 18.4872V29.2564H174.868H175.904L175.833 24.6615C175.802 22.1385 175.699 17.7897 175.617 15C175.535 12.2103 175.463 9.84102 175.463 9.73846C175.463 9.59487 175.556 9.5641 175.925 9.5641C176.181 9.5641 176.386 9.57436 176.386 9.59487C176.386 9.61538 176.961 12.4872 177.668 15.9846C178.407 19.6667 179.309 23.7795 179.812 25.7692L180.674 29.2051L182.684 29.2359L184.694 29.2564V18.4872V7.71795H183.648H182.592L182.622 10.6615C182.643 13.8103 182.91 24.2205 183.012 26.1487L183.063 27.3077H182.622H182.181L180.807 21.0205C179.72 16.0359 178.089 9.03077 177.761 7.89231C177.709 7.73846 177.525 7.71795 175.761 7.71795H173.822V18.4872Z" fill="black"/>
    <path d="M25.8309 19.441C25.7796 19.5641 24.8976 22.1384 23.8617 25.1538C22.2617 29.841 21.7283 31.2564 20.2001 34.8461C19.2257 37.1538 18.395 39.1128 18.3642 39.1743C18.3232 39.2769 19.0821 39.3077 21.954 39.3077C23.9642 39.3077 25.6258 39.3384 25.6463 39.3795C25.6668 39.4307 25.6463 39.8615 25.595 40.3641C25.4925 41.4102 25.0719 42.7538 24.5796 43.5846C24.1078 44.3743 23.1642 45.2872 22.4565 45.6359C21.9437 45.8923 21.7591 45.923 20.8975 45.923C20.0463 45.923 19.8411 45.882 19.3283 45.6461C18.6103 45.3077 17.5744 44.3128 17.1437 43.5436C16.9796 43.2461 16.8257 43 16.7949 43C16.7437 43 14.9385 47.2051 14.9488 47.3179C14.9488 47.3589 18.9591 47.3589 23.8617 47.3282L32.7643 47.2769L32.8874 47.6256C33.2977 48.7846 33.0823 50.0871 32.3438 50.8461L31.9028 51.3077H28.6822H25.4514L24.9899 51.5948C24.3232 52.0256 23.6053 52.8666 23.4001 53.482C23.0514 54.5589 23.4104 55.8 24.4565 57.1025L24.9591 57.7179L26.2822 57.7487C27.7591 57.7897 32.4669 57.6154 34.3848 57.4513C35.9028 57.3282 37.6362 57.082 38.4156 56.8872C39.6054 56.5795 40.3234 55.7589 40.6618 54.2923C41.0003 52.8461 40.9182 51.2564 39.8926 40.4564L38.949 30.5795L38.5797 29.4513C37.6054 26.5179 35.4207 23.9333 32.231 21.923C30.6617 20.9384 28.3438 19.9025 26.6617 19.4307L25.913 19.2154L25.8309 19.441Z" fill="#1560BD"/>
    <path d="M15.0822 19.7179C12.2719 20.4769 9.31805 21.9743 7.24623 23.6974C5.23596 25.3692 3.93339 27.2359 3.13338 29.5949C2.82568 30.5077 2.78466 30.8461 1.86157 40.6923C1.29746 46.641 0.897461 51.3487 0.897461 52.0564C0.897461 54.6615 1.56413 56.2308 2.87697 56.7231C4.29236 57.2564 8.07701 57.6051 13.6668 57.7384L16.6412 57.8L17.1745 57.2154C17.472 56.8974 17.8822 56.282 18.0976 55.8513C18.4361 55.1641 18.4771 54.9795 18.4771 54.3436C18.4771 53.7897 18.4156 53.5026 18.2412 53.1743C17.9335 52.5795 17.4002 52.0051 16.8053 51.6256L16.313 51.3077H13.1232H9.93344L9.55395 50.9795C8.97958 50.4769 8.6924 49.7692 8.70266 48.8974C8.70266 48.4974 8.7642 47.9949 8.83599 47.7692L8.95907 47.359L11.3488 47.3077L13.7489 47.2564L15.0207 44.3846L16.2925 41.5128L16.1899 40.6923C15.995 39.2667 15.9848 39.3077 16.672 39.3077H17.2566L19.1233 35.0718C20.1489 32.7538 21.0002 30.7949 21.0207 30.7436C21.0617 30.6205 15.9745 19.5128 15.8822 19.5231C15.8514 19.5231 15.4925 19.6154 15.0822 19.7179Z" fill="#1560BD"/>
    <path d="M95.9855 41.6051C95.8624 41.7384 95.7394 42.0051 95.6983 42.2102C95.647 42.5282 95.6881 42.6205 95.9547 42.8974C96.3547 43.2872 96.8573 43.3179 97.2778 42.959C97.6573 42.6308 97.6778 42.0051 97.3189 41.6256C96.9804 41.2666 96.3137 41.2564 95.9855 41.6051Z" fill="black"/>
    <path d="M65.011 41.6769C63.3597 41.9538 62.2417 43.1641 62.3648 44.5487C62.3955 44.8564 62.4879 45.2666 62.5802 45.4513C62.8571 45.9846 63.493 46.5384 64.1904 46.8769C64.5494 47.0513 65.3494 47.4205 65.9648 47.7077C67.3392 48.3538 67.893 48.7948 68.1289 49.4102C68.4982 50.3641 68.1084 51.2666 67.1033 51.7692C66.5905 52.0256 66.3751 52.0666 65.7597 52.0666C64.1084 52.0461 63.134 51.082 62.7956 49.123C62.7443 48.8051 62.693 48.7436 62.4879 48.7436H62.2314V50.5897C62.2314 51.6051 62.2622 52.4359 62.293 52.4359C62.4981 52.4359 62.7443 52.1897 62.7443 51.9743C62.7443 51.6564 62.734 51.6564 63.3597 51.9743C64.5802 52.5897 66.5597 52.7128 67.7802 52.241C69.011 51.7692 69.7597 50.7641 69.7495 49.6051C69.7392 48.3538 69.1136 47.5846 67.4725 46.8256C65.1443 45.7384 64.7751 45.5436 64.3956 45.1743C63.6263 44.4461 63.6161 43.3795 64.3648 42.6718C64.8263 42.241 65.3187 42.0769 66.1392 42.0769C67.5546 42.0769 68.5084 42.8461 68.7956 44.2102C68.8879 44.6307 68.9597 44.7436 69.1136 44.7436C69.2982 44.7436 69.3084 44.6513 69.3084 43.1948C69.3084 42.0051 69.2777 41.6564 69.1854 41.6872C69.1136 41.7179 68.9905 41.8513 68.9289 41.9948L68.7956 42.2615L68.211 42.0154C67.1853 41.6051 66.1289 41.4923 65.011 41.6769Z" fill="#3D3D3D"/>
    <path d="M73.9239 44.8359C73.0009 45.1231 72.2419 45.8103 71.7803 46.7846C71.5342 47.3077 71.5137 47.4718 71.5137 48.641C71.5137 49.8923 71.5239 49.9436 71.8521 50.6103C72.4265 51.7795 73.4522 52.4359 74.8573 52.518C75.7291 52.5692 76.5394 52.3846 77.1035 52.0051C77.5137 51.7282 78.1496 50.918 78.0983 50.7538C78.0163 50.4974 77.7394 50.6 77.483 50.9897C76.4983 52.4769 74.1906 52.4256 73.4111 50.8872C73.165 50.4154 72.8983 49.3487 72.8983 48.8462V48.4872H74.7752C76.9496 48.4872 77.5855 48.3744 77.9753 47.9026C78.3137 47.4923 78.324 46.7128 77.9958 46.1282C77.6983 45.6051 77.0214 45.0923 76.365 44.8974C75.8111 44.7333 74.3752 44.7026 73.9239 44.8359ZM76.0778 45.3795C76.2624 45.5128 76.5086 45.7385 76.6214 45.8821C76.8676 46.2308 76.9599 47 76.7958 47.4C76.5804 47.9231 76.1906 48.0256 74.4368 48.0256H72.8675L72.9393 47.5539C73.0932 46.4359 73.5342 45.6769 74.2522 45.3282C74.765 45.0718 75.6676 45.1026 76.0778 45.3795Z" fill="#3D3D3D"/>
    <path d="M84.0778 44.8359C83.5445 45.0102 83.165 45.2666 82.7035 45.7795C82.447 46.0666 82.2214 46.3538 82.2214 46.4256C82.2009 46.6615 82.0368 45.6974 82.0368 45.2769L82.0265 44.8461H80.7445C79.5342 44.8461 79.4624 44.8564 79.4624 45.0513C79.4624 45.2359 79.5342 45.2564 80.1291 45.2564H80.7957V48.3231C80.7957 51.2461 80.7855 51.3897 80.5906 51.6461C80.4368 51.841 80.2624 51.9231 79.9445 51.9436C79.6368 51.9641 79.5034 52.0256 79.4829 52.159C79.4521 52.3231 79.606 52.3333 81.6573 52.3333C83.5137 52.3333 83.8624 52.3128 83.8112 52.1897C83.7394 51.9949 83.4317 51.9231 82.7137 51.9231H82.1086L82.1496 49.6359C82.1804 47.3897 82.1804 47.3487 82.4676 46.7743C82.7958 46.0974 83.4522 45.4615 83.8214 45.4615C83.9958 45.4615 84.1599 45.5846 84.3855 45.9231C84.724 46.4256 85.0625 46.5692 85.4112 46.3846C85.883 46.1282 85.8727 45.3795 85.4009 45.0205C85.1035 44.8051 84.4573 44.7128 84.0778 44.8359Z" fill="#3D3D3D"/>
    <path d="M102.283 44.9282C100.98 45.3795 100.17 46.559 100.016 48.2205C99.7904 50.6513 101.216 52.3949 103.534 52.5179C104.519 52.5692 105.216 52.3846 105.873 51.9128C106.314 51.5846 106.878 50.8256 106.785 50.6821C106.714 50.559 106.334 50.5692 106.334 50.6923C106.334 50.9077 105.544 51.6564 105.114 51.8513C104.416 52.159 103.514 52.1385 102.929 51.7897C101.985 51.2462 101.472 50.0564 101.483 48.4667C101.503 46.3436 102.334 45.1538 103.821 45.1538C104.324 45.1538 104.447 45.1949 104.693 45.441C104.878 45.6256 105.001 45.8923 105.052 46.1897C105.206 47.1026 105.616 47.4821 106.19 47.2154C106.806 46.9385 106.724 46.0051 106.026 45.441C105.185 44.7744 103.431 44.5282 102.283 44.9282Z" fill="#3D3D3D"/>
    <path d="M110.006 44.8974C109.719 44.9897 109.309 45.2564 108.97 45.5641C107.432 46.9692 107.247 49.8103 108.601 51.3487C109.77 52.6718 112.16 52.9385 113.534 51.8923C114.047 51.4923 114.498 50.7949 114.303 50.6718C114.109 50.5487 114.078 50.5692 113.739 51.041C113.329 51.6051 112.878 51.8923 112.16 52.0359C110.57 52.3538 109.421 51.2154 109.237 49.1538L109.185 48.4872H111.114C113.196 48.4769 113.729 48.3949 114.201 47.9846C114.457 47.759 114.488 47.6667 114.488 47.0718C114.488 46.1795 114.15 45.6872 113.206 45.1641C112.58 44.8256 112.468 44.7949 111.514 44.7744C110.816 44.7538 110.334 44.7949 110.006 44.8974ZM112.396 45.3897C113.186 45.9128 113.432 47.1333 112.857 47.7077C112.591 47.9744 112.57 47.9744 110.898 48.0051L109.206 48.0359V47.6872C109.206 46.8051 109.698 45.8615 110.375 45.4205C110.929 45.0615 111.883 45.041 112.396 45.3897Z" fill="#3D3D3D"/>
    <path d="M85.9238 45.0513C85.9238 45.2256 85.9956 45.2564 86.3238 45.2564C86.611 45.2564 86.7443 45.3077 86.7956 45.4308C86.8367 45.5333 87.3495 46.9487 87.9444 48.5897C88.5392 50.2205 89.0931 51.6872 89.1649 51.841C89.37 52.2308 89.7495 52.4564 90.1392 52.4154L90.4675 52.3846L91.7188 49.1026C92.4059 47.2974 93.0213 45.7179 93.0829 45.5949C93.1547 45.4615 93.3393 45.3385 93.4931 45.2974C93.9752 45.1949 94.0265 45.1641 94.0265 45C94.0265 44.8667 93.8213 44.8462 92.6931 44.8462C91.4316 44.8462 91.3598 44.8564 91.3598 45.0513C91.3598 45.2359 91.4316 45.2564 91.9752 45.2564C92.3957 45.2564 92.5906 45.2974 92.5906 45.3795C92.5906 45.5333 90.5393 51.1231 90.4367 51.2359C90.3854 51.2974 88.3956 46.1487 88.211 45.4821C88.1597 45.2667 88.1905 45.2564 88.7341 45.2564C89.2367 45.2564 89.3085 45.2359 89.3085 45.0513C89.3085 44.8564 89.2367 44.8462 87.6162 44.8462C85.9956 44.8462 85.9238 44.8564 85.9238 45.0513Z" fill="#3D3D3D"/>
    <path d="M94.6421 45.0513C94.6421 45.2359 94.7139 45.2564 95.36 45.2564H96.0883L96.0575 48.3949L96.0267 51.5333L95.7806 51.7282C95.6267 51.8513 95.3806 51.9231 95.0934 51.9231C94.7139 51.9231 94.6421 51.9538 94.6421 52.1282C94.6421 52.3231 94.7139 52.3333 96.6421 52.3333C98.2729 52.3333 98.6421 52.3025 98.6421 52.1897C98.6421 52.0256 98.3344 51.9231 97.8011 51.9231H97.4113V48.3846V44.8461H96.0267C94.7139 44.8461 94.6421 44.8564 94.6421 45.0513Z" fill="#3D3D3D"/>
</svg>
